<mxfile host="65bd71144e">
    <diagram id="C5RBs43oDa-KdzZeNtuy" name="Page-1">
        <mxGraphModel dx="946" dy="733" grid="1" gridSize="10" guides="1" tooltips="1" connect="1" arrows="1" fold="1" page="1" pageScale="1" pageWidth="827" pageHeight="1169" math="0" shadow="0">
            <root>
                <mxCell id="WIyWlLk6GJQsqaUBKTNV-0"/>
                <mxCell id="WIyWlLk6GJQsqaUBKTNV-1" parent="WIyWlLk6GJQsqaUBKTNV-0"/>
                <mxCell id="nB1xQmYHkvTLg1SQgZ14-0" value="" style="rounded=0;whiteSpace=wrap;html=1;" parent="WIyWlLk6GJQsqaUBKTNV-1" vertex="1">
                    <mxGeometry x="280" y="40" width="120" height="60" as="geometry"/>
                </mxCell>
                <mxCell id="nB1xQmYHkvTLg1SQgZ14-3" value="" style="edgeStyle=none;curved=1;rounded=0;orthogonalLoop=1;jettySize=auto;html=1;fontSize=12;startSize=8;endSize=8;" parent="WIyWlLk6GJQsqaUBKTNV-1" source="nB1xQmYHkvTLg1SQgZ14-1" target="nB1xQmYHkvTLg1SQgZ14-2" edge="1">
                    <mxGeometry relative="1" as="geometry"/>
                </mxCell>
                <mxCell id="nB1xQmYHkvTLg1SQgZ14-1" value="Start" style="text;html=1;align=center;verticalAlign=middle;whiteSpace=wrap;rounded=0;fontSize=16;" parent="WIyWlLk6GJQsqaUBKTNV-1" vertex="1">
                    <mxGeometry x="300" y="55" width="70" height="35" as="geometry"/>
                </mxCell>
                <mxCell id="nB1xQmYHkvTLg1SQgZ14-6" value="" style="edgeStyle=none;curved=1;rounded=0;orthogonalLoop=1;jettySize=auto;html=1;fontSize=12;startSize=8;endSize=8;" parent="WIyWlLk6GJQsqaUBKTNV-1" source="nB1xQmYHkvTLg1SQgZ14-2" target="nB1xQmYHkvTLg1SQgZ14-5" edge="1">
                    <mxGeometry relative="1" as="geometry"/>
                </mxCell>
                <mxCell id="nB1xQmYHkvTLg1SQgZ14-2" value="" style="whiteSpace=wrap;html=1;" parent="WIyWlLk6GJQsqaUBKTNV-1" vertex="1">
                    <mxGeometry x="275" y="197.5" width="120" height="60" as="geometry"/>
                </mxCell>
                <mxCell id="nB1xQmYHkvTLg1SQgZ14-4" value="queens" style="text;html=1;align=center;verticalAlign=middle;whiteSpace=wrap;rounded=0;fontSize=16;" parent="WIyWlLk6GJQsqaUBKTNV-1" vertex="1">
                    <mxGeometry x="305" y="213" width="60" height="30" as="geometry"/>
                </mxCell>
                <mxCell id="nB1xQmYHkvTLg1SQgZ14-9" value="" style="edgeStyle=none;curved=1;rounded=0;orthogonalLoop=1;jettySize=auto;html=1;fontSize=12;startSize=8;endSize=8;" parent="WIyWlLk6GJQsqaUBKTNV-1" source="nB1xQmYHkvTLg1SQgZ14-5" target="nB1xQmYHkvTLg1SQgZ14-8" edge="1">
                    <mxGeometry relative="1" as="geometry"/>
                </mxCell>
                <mxCell id="nB1xQmYHkvTLg1SQgZ14-5" value="" style="whiteSpace=wrap;html=1;" parent="WIyWlLk6GJQsqaUBKTNV-1" vertex="1">
                    <mxGeometry x="275" y="377.5" width="120" height="60" as="geometry"/>
                </mxCell>
                <mxCell id="nB1xQmYHkvTLg1SQgZ14-7" value="Solve" style="text;html=1;align=center;verticalAlign=middle;whiteSpace=wrap;rounded=0;fontSize=16;" parent="WIyWlLk6GJQsqaUBKTNV-1" vertex="1">
                    <mxGeometry x="305" y="393" width="60" height="30" as="geometry"/>
                </mxCell>
                <mxCell id="nB1xQmYHkvTLg1SQgZ14-8" value="" style="whiteSpace=wrap;html=1;" parent="WIyWlLk6GJQsqaUBKTNV-1" vertex="1">
                    <mxGeometry x="275" y="557.5" width="120" height="60" as="geometry"/>
                </mxCell>
                <mxCell id="nB1xQmYHkvTLg1SQgZ14-14" value="" style="edgeStyle=none;curved=1;rounded=0;orthogonalLoop=1;jettySize=auto;html=1;fontSize=12;startSize=8;endSize=8;exitX=-0.002;exitY=0.531;exitDx=0;exitDy=0;exitPerimeter=0;" parent="WIyWlLk6GJQsqaUBKTNV-1" source="nB1xQmYHkvTLg1SQgZ14-8" target="nB1xQmYHkvTLg1SQgZ14-13" edge="1">
                    <mxGeometry relative="1" as="geometry">
                        <mxPoint x="270" y="590" as="sourcePoint"/>
                    </mxGeometry>
                </mxCell>
                <mxCell id="nB1xQmYHkvTLg1SQgZ14-29" value="" style="edgeStyle=none;curved=1;rounded=0;orthogonalLoop=1;jettySize=auto;html=1;fontSize=12;startSize=8;endSize=8;" parent="WIyWlLk6GJQsqaUBKTNV-1" source="nB1xQmYHkvTLg1SQgZ14-10" target="nB1xQmYHkvTLg1SQgZ14-28" edge="1">
                    <mxGeometry relative="1" as="geometry"/>
                </mxCell>
                <mxCell id="nB1xQmYHkvTLg1SQgZ14-10" value="solve n queens until(col)" style="text;html=1;align=center;verticalAlign=middle;whiteSpace=wrap;rounded=0;fontSize=16;" parent="WIyWlLk6GJQsqaUBKTNV-1" vertex="1">
                    <mxGeometry x="290" y="560.5" width="90" height="57" as="geometry"/>
                </mxCell>
                <mxCell id="nB1xQmYHkvTLg1SQgZ14-17" value="" style="edgeStyle=none;curved=1;rounded=0;orthogonalLoop=1;jettySize=auto;html=1;fontSize=12;startSize=8;endSize=8;" parent="WIyWlLk6GJQsqaUBKTNV-1" source="nB1xQmYHkvTLg1SQgZ14-13" target="nB1xQmYHkvTLg1SQgZ14-16" edge="1">
                    <mxGeometry relative="1" as="geometry"/>
                </mxCell>
                <mxCell id="nB1xQmYHkvTLg1SQgZ14-25" value="" style="edgeStyle=none;curved=1;rounded=0;orthogonalLoop=1;jettySize=auto;html=1;fontSize=12;startSize=8;endSize=8;" parent="WIyWlLk6GJQsqaUBKTNV-1" source="nB1xQmYHkvTLg1SQgZ14-13" target="nB1xQmYHkvTLg1SQgZ14-24" edge="1">
                    <mxGeometry relative="1" as="geometry"/>
                </mxCell>
                <mxCell id="nB1xQmYHkvTLg1SQgZ14-13" value="" style="rhombus;whiteSpace=wrap;html=1;" parent="WIyWlLk6GJQsqaUBKTNV-1" vertex="1">
                    <mxGeometry x="85" y="549" width="80" height="80" as="geometry"/>
                </mxCell>
                <mxCell id="nB1xQmYHkvTLg1SQgZ14-15" value="True?" style="text;html=1;align=center;verticalAlign=middle;whiteSpace=wrap;rounded=0;fontSize=16;" parent="WIyWlLk6GJQsqaUBKTNV-1" vertex="1">
                    <mxGeometry x="95" y="573" width="60" height="30" as="geometry"/>
                </mxCell>
                <mxCell id="nB1xQmYHkvTLg1SQgZ14-79" style="edgeStyle=none;curved=1;rounded=0;orthogonalLoop=1;jettySize=auto;html=1;fontSize=12;startSize=8;endSize=8;entryX=0.5;entryY=0;entryDx=0;entryDy=0;" parent="WIyWlLk6GJQsqaUBKTNV-1" source="nB1xQmYHkvTLg1SQgZ14-16" target="nB1xQmYHkvTLg1SQgZ14-80" edge="1">
                    <mxGeometry relative="1" as="geometry">
                        <mxPoint x="120" y="980" as="targetPoint"/>
                    </mxGeometry>
                </mxCell>
                <mxCell id="nB1xQmYHkvTLg1SQgZ14-16" value="" style="whiteSpace=wrap;html=1;" parent="WIyWlLk6GJQsqaUBKTNV-1" vertex="1">
                    <mxGeometry x="65" y="759" width="120" height="60" as="geometry"/>
                </mxCell>
                <mxCell id="nB1xQmYHkvTLg1SQgZ14-18" value="Printqueens" style="text;html=1;align=center;verticalAlign=middle;whiteSpace=wrap;rounded=0;fontSize=16;" parent="WIyWlLk6GJQsqaUBKTNV-1" vertex="1">
                    <mxGeometry x="95" y="774" width="60" height="30" as="geometry"/>
                </mxCell>
                <mxCell id="nB1xQmYHkvTLg1SQgZ14-21" value="Yes" style="text;html=1;align=center;verticalAlign=middle;whiteSpace=wrap;rounded=0;fontSize=16;" parent="WIyWlLk6GJQsqaUBKTNV-1" vertex="1">
                    <mxGeometry x="120" y="670" width="60" height="30" as="geometry"/>
                </mxCell>
                <mxCell id="nB1xQmYHkvTLg1SQgZ14-78" style="edgeStyle=none;curved=1;rounded=0;orthogonalLoop=1;jettySize=auto;html=1;exitX=1;exitY=0.5;exitDx=0;exitDy=0;fontSize=12;startSize=8;endSize=8;entryX=0.5;entryY=0;entryDx=0;entryDy=0;" parent="WIyWlLk6GJQsqaUBKTNV-1" source="nB1xQmYHkvTLg1SQgZ14-24" target="nB1xQmYHkvTLg1SQgZ14-80" edge="1">
                    <mxGeometry relative="1" as="geometry">
                        <mxPoint x="130" y="980" as="targetPoint"/>
                        <Array as="points">
                            <mxPoint x="280" y="710"/>
                        </Array>
                    </mxGeometry>
                </mxCell>
                <mxCell id="nB1xQmYHkvTLg1SQgZ14-24" value="" style="whiteSpace=wrap;html=1;" parent="WIyWlLk6GJQsqaUBKTNV-1" vertex="1">
                    <mxGeometry x="65" y="359" width="120" height="60" as="geometry"/>
                </mxCell>
                <mxCell id="nB1xQmYHkvTLg1SQgZ14-26" value="No" style="text;html=1;align=center;verticalAlign=middle;whiteSpace=wrap;rounded=0;fontSize=16;" parent="WIyWlLk6GJQsqaUBKTNV-1" vertex="1">
                    <mxGeometry x="140" y="470" width="60" height="30" as="geometry"/>
                </mxCell>
                <mxCell id="nB1xQmYHkvTLg1SQgZ14-27" value="No solution" style="text;html=1;align=center;verticalAlign=middle;whiteSpace=wrap;rounded=0;fontSize=16;" parent="WIyWlLk6GJQsqaUBKTNV-1" vertex="1">
                    <mxGeometry x="95" y="374" width="60" height="30" as="geometry"/>
                </mxCell>
                <mxCell id="nB1xQmYHkvTLg1SQgZ14-33" style="edgeStyle=none;curved=1;rounded=0;orthogonalLoop=1;jettySize=auto;html=1;entryX=1;entryY=0.5;entryDx=0;entryDy=0;fontSize=12;startSize=8;endSize=8;" parent="WIyWlLk6GJQsqaUBKTNV-1" source="nB1xQmYHkvTLg1SQgZ14-28" target="nB1xQmYHkvTLg1SQgZ14-16" edge="1">
                    <mxGeometry relative="1" as="geometry"/>
                </mxCell>
                <mxCell id="nB1xQmYHkvTLg1SQgZ14-36" value="" style="edgeStyle=none;curved=1;rounded=0;orthogonalLoop=1;jettySize=auto;html=1;fontSize=12;startSize=8;endSize=8;" parent="WIyWlLk6GJQsqaUBKTNV-1" source="nB1xQmYHkvTLg1SQgZ14-28" target="nB1xQmYHkvTLg1SQgZ14-35" edge="1">
                    <mxGeometry relative="1" as="geometry"/>
                </mxCell>
                <mxCell id="nB1xQmYHkvTLg1SQgZ14-28" value="" style="rhombus;whiteSpace=wrap;html=1;" parent="WIyWlLk6GJQsqaUBKTNV-1" vertex="1">
                    <mxGeometry x="295" y="749" width="80" height="80" as="geometry"/>
                </mxCell>
                <mxCell id="nB1xQmYHkvTLg1SQgZ14-30" value="col&amp;gt;=N?" style="text;html=1;align=center;verticalAlign=middle;whiteSpace=wrap;rounded=0;fontSize=16;" parent="WIyWlLk6GJQsqaUBKTNV-1" vertex="1">
                    <mxGeometry x="305" y="774" width="60" height="30" as="geometry"/>
                </mxCell>
                <mxCell id="nB1xQmYHkvTLg1SQgZ14-34" value="Yes" style="text;html=1;align=center;verticalAlign=middle;whiteSpace=wrap;rounded=0;fontSize=16;" parent="WIyWlLk6GJQsqaUBKTNV-1" vertex="1">
                    <mxGeometry x="210" y="729" width="60" height="30" as="geometry"/>
                </mxCell>
                <mxCell id="nB1xQmYHkvTLg1SQgZ14-35" value="" style="whiteSpace=wrap;html=1;" parent="WIyWlLk6GJQsqaUBKTNV-1" vertex="1">
                    <mxGeometry x="475" y="728.5" width="115" height="121" as="geometry"/>
                </mxCell>
                <mxCell id="nB1xQmYHkvTLg1SQgZ14-39" value="" style="edgeStyle=none;curved=1;rounded=0;orthogonalLoop=1;jettySize=auto;html=1;fontSize=12;startSize=8;endSize=8;exitX=1;exitY=0.5;exitDx=0;exitDy=0;" parent="WIyWlLk6GJQsqaUBKTNV-1" source="nB1xQmYHkvTLg1SQgZ14-35" target="nB1xQmYHkvTLg1SQgZ14-38" edge="1">
                    <mxGeometry relative="1" as="geometry"/>
                </mxCell>
                <mxCell id="nB1xQmYHkvTLg1SQgZ14-66" value="" style="edgeStyle=none;curved=1;rounded=0;orthogonalLoop=1;jettySize=auto;html=1;fontSize=12;startSize=8;endSize=8;" parent="WIyWlLk6GJQsqaUBKTNV-1" source="nB1xQmYHkvTLg1SQgZ14-37" target="nB1xQmYHkvTLg1SQgZ14-65" edge="1">
                    <mxGeometry relative="1" as="geometry"/>
                </mxCell>
                <mxCell id="nB1xQmYHkvTLg1SQgZ14-74" style="edgeStyle=none;curved=1;rounded=0;orthogonalLoop=1;jettySize=auto;html=1;fontSize=12;startSize=8;endSize=8;entryX=0;entryY=0.75;entryDx=0;entryDy=0;exitX=0.009;exitY=0.607;exitDx=0;exitDy=0;exitPerimeter=0;" parent="WIyWlLk6GJQsqaUBKTNV-1" source="nB1xQmYHkvTLg1SQgZ14-35" target="nB1xQmYHkvTLg1SQgZ14-24" edge="1">
                    <mxGeometry relative="1" as="geometry">
                        <mxPoint x="50" y="920" as="targetPoint"/>
                        <Array as="points">
                            <mxPoint x="150" y="970"/>
                            <mxPoint x="-10" y="730"/>
                        </Array>
                    </mxGeometry>
                </mxCell>
                <mxCell id="nB1xQmYHkvTLg1SQgZ14-37" value="for i in range(N)&lt;br&gt;[n is number of queens]" style="text;html=1;align=center;verticalAlign=middle;whiteSpace=wrap;rounded=0;fontSize=16;" parent="WIyWlLk6GJQsqaUBKTNV-1" vertex="1">
                    <mxGeometry x="490" y="728.5" width="85" height="116" as="geometry"/>
                </mxCell>
                <mxCell id="nB1xQmYHkvTLg1SQgZ14-42" value="" style="edgeStyle=none;curved=1;rounded=0;orthogonalLoop=1;jettySize=auto;html=1;fontSize=12;startSize=8;endSize=8;" parent="WIyWlLk6GJQsqaUBKTNV-1" source="nB1xQmYHkvTLg1SQgZ14-38" target="nB1xQmYHkvTLg1SQgZ14-41" edge="1">
                    <mxGeometry relative="1" as="geometry"/>
                </mxCell>
                <mxCell id="nB1xQmYHkvTLg1SQgZ14-38" value="" style="rhombus;whiteSpace=wrap;html=1;" parent="WIyWlLk6GJQsqaUBKTNV-1" vertex="1">
                    <mxGeometry x="650" y="715.75" width="167.5" height="146.5" as="geometry"/>
                </mxCell>
                <mxCell id="nB1xQmYHkvTLg1SQgZ14-40" value="Is_safe(i,col)" style="text;html=1;align=center;verticalAlign=middle;whiteSpace=wrap;rounded=0;fontSize=16;" parent="WIyWlLk6GJQsqaUBKTNV-1" vertex="1">
                    <mxGeometry x="685.75" y="766" width="96" height="46" as="geometry"/>
                </mxCell>
                <mxCell id="nB1xQmYHkvTLg1SQgZ14-45" style="edgeStyle=none;curved=1;rounded=0;orthogonalLoop=1;jettySize=auto;html=1;entryX=1;entryY=0.5;entryDx=0;entryDy=0;fontSize=12;startSize=8;endSize=8;" parent="WIyWlLk6GJQsqaUBKTNV-1" source="nB1xQmYHkvTLg1SQgZ14-41" target="nB1xQmYHkvTLg1SQgZ14-8" edge="1">
                    <mxGeometry relative="1" as="geometry"/>
                </mxCell>
                <mxCell id="nB1xQmYHkvTLg1SQgZ14-41" value="" style="whiteSpace=wrap;html=1;" parent="WIyWlLk6GJQsqaUBKTNV-1" vertex="1">
                    <mxGeometry x="673.75" y="557.5" width="120" height="60" as="geometry"/>
                </mxCell>
                <mxCell id="nB1xQmYHkvTLg1SQgZ14-43" value="place_queen" style="text;html=1;align=center;verticalAlign=middle;whiteSpace=wrap;rounded=0;fontSize=16;" parent="WIyWlLk6GJQsqaUBKTNV-1" vertex="1">
                    <mxGeometry x="703.75" y="570" width="60" height="30" as="geometry"/>
                </mxCell>
                <mxCell id="nB1xQmYHkvTLg1SQgZ14-44" value="col=0" style="text;html=1;align=center;verticalAlign=middle;whiteSpace=wrap;rounded=0;fontSize=16;" parent="WIyWlLk6GJQsqaUBKTNV-1" vertex="1">
                    <mxGeometry x="340" y="478" width="60" height="30" as="geometry"/>
                </mxCell>
                <mxCell id="nB1xQmYHkvTLg1SQgZ14-46" value="col+=1" style="text;html=1;align=center;verticalAlign=middle;whiteSpace=wrap;rounded=0;fontSize=16;" parent="WIyWlLk6GJQsqaUBKTNV-1" vertex="1">
                    <mxGeometry x="515" y="549" width="60" height="30" as="geometry"/>
                </mxCell>
                <mxCell id="nB1xQmYHkvTLg1SQgZ14-55" value="yes" style="text;html=1;align=center;verticalAlign=middle;whiteSpace=wrap;rounded=0;fontSize=16;" parent="WIyWlLk6GJQsqaUBKTNV-1" vertex="1">
                    <mxGeometry x="750" y="660" width="60" height="30" as="geometry"/>
                </mxCell>
                <mxCell id="nB1xQmYHkvTLg1SQgZ14-69" value="" style="edgeStyle=none;curved=1;rounded=0;orthogonalLoop=1;jettySize=auto;html=1;fontSize=12;startSize=8;endSize=8;" parent="WIyWlLk6GJQsqaUBKTNV-1" source="nB1xQmYHkvTLg1SQgZ14-65" target="nB1xQmYHkvTLg1SQgZ14-68" edge="1">
                    <mxGeometry relative="1" as="geometry"/>
                </mxCell>
                <mxCell id="nB1xQmYHkvTLg1SQgZ14-65" value="" style="rhombus;whiteSpace=wrap;html=1;" parent="WIyWlLk6GJQsqaUBKTNV-1" vertex="1">
                    <mxGeometry x="463.75" y="990" width="137.5" height="147.5" as="geometry"/>
                </mxCell>
                <mxCell id="nB1xQmYHkvTLg1SQgZ14-67" value="solve n queens until(col+1)" style="text;html=1;align=center;verticalAlign=middle;whiteSpace=wrap;rounded=0;fontSize=16;" parent="WIyWlLk6GJQsqaUBKTNV-1" vertex="1">
                    <mxGeometry x="503" y="1049" width="60" height="30" as="geometry"/>
                </mxCell>
                <mxCell id="nB1xQmYHkvTLg1SQgZ14-75" style="edgeStyle=none;curved=1;rounded=0;orthogonalLoop=1;jettySize=auto;html=1;entryX=0.25;entryY=1;entryDx=0;entryDy=0;fontSize=12;startSize=8;endSize=8;" parent="WIyWlLk6GJQsqaUBKTNV-1" source="nB1xQmYHkvTLg1SQgZ14-68" target="nB1xQmYHkvTLg1SQgZ14-35" edge="1">
                    <mxGeometry relative="1" as="geometry"/>
                </mxCell>
                <mxCell id="nB1xQmYHkvTLg1SQgZ14-68" value="" style="whiteSpace=wrap;html=1;" parent="WIyWlLk6GJQsqaUBKTNV-1" vertex="1">
                    <mxGeometry x="215" y="1033.75" width="120" height="60" as="geometry"/>
                </mxCell>
                <mxCell id="nB1xQmYHkvTLg1SQgZ14-70" value="remove queen" style="text;html=1;align=center;verticalAlign=middle;whiteSpace=wrap;rounded=0;fontSize=16;" parent="WIyWlLk6GJQsqaUBKTNV-1" vertex="1">
                    <mxGeometry x="240" y="1049" width="60" height="30" as="geometry"/>
                </mxCell>
                <mxCell id="nB1xQmYHkvTLg1SQgZ14-76" value="loop ends" style="text;html=1;align=center;verticalAlign=middle;whiteSpace=wrap;rounded=0;fontSize=16;" parent="WIyWlLk6GJQsqaUBKTNV-1" vertex="1">
                    <mxGeometry x="200" y="900" width="60" height="30" as="geometry"/>
                </mxCell>
                <mxCell id="nB1xQmYHkvTLg1SQgZ14-80" value="" style="rounded=1;whiteSpace=wrap;html=1;" parent="WIyWlLk6GJQsqaUBKTNV-1" vertex="1">
                    <mxGeometry x="65" y="989" width="120" height="60" as="geometry"/>
                </mxCell>
                <mxCell id="nB1xQmYHkvTLg1SQgZ14-81" value="End" style="text;html=1;align=center;verticalAlign=middle;whiteSpace=wrap;rounded=0;fontSize=16;" parent="WIyWlLk6GJQsqaUBKTNV-1" vertex="1">
                    <mxGeometry x="95" y="1004" width="60" height="30" as="geometry"/>
                </mxCell>
            </root>
        </mxGraphModel>
    </diagram>
</mxfile>